<svg id="Layer_1" data-name="Layer 1" xmlns="http://www.w3.org/2000/svg" xmlns:xlink="http://www.w3.org/1999/xlink" viewBox="0 0 800 800">
  <defs>
    <style>
      .cls-1 {
        fill: #22354d;
      }

      .cls-2 {
        fill: #c9d1d9;
      }

      .cls-3 {
        fill: #4b5972;
      }

      .cls-4 {
        fill: url(#linear-gradient);
      }

      .cls-5 {
        fill: url(#linear-gradient-2);
      }

      .cls-6 {
        fill: url(#linear-gradient-3);
      }

      .cls-7 {
        fill: url(#linear-gradient-4);
      }

      .cls-8 {
        fill: url(#linear-gradient-5);
      }

      .cls-9 {
        fill: #0f131f;
      }

      .cls-10 {
        fill: url(#linear-gradient-6);
      }

      .cls-11 {
        fill: url(#linear-gradient-7);
      }
    </style>
    <linearGradient id="linear-gradient" x1="289.25" y1="627.47" x2="481.76" y2="627.47" gradientUnits="userSpaceOnUse">
      <stop offset="0" stop-color="#2980b9"/>
      <stop offset="0.08" stop-color="#3d98cc"/>
      <stop offset="0.18" stop-color="#52b3e0"/>
      <stop offset="0.29" stop-color="#61c6ee"/>
      <stop offset="0.4" stop-color="#6ad1f7"/>
      <stop offset="0.52" stop-color="#6dd5fa"/>
      <stop offset="1" stop-color="#fff"/>
    </linearGradient>
    <linearGradient id="linear-gradient-2" x1="248.18" y1="670.16" x2="319.53" y2="670.16" xlink:href="#linear-gradient"/>
    <linearGradient id="linear-gradient-3" x1="171.11" y1="393.37" x2="227.6" y2="377.01" xlink:href="#linear-gradient"/>
    <linearGradient id="linear-gradient-4" x1="539.82" y1="438.17" x2="665.8" y2="438.17" xlink:href="#linear-gradient"/>
    <linearGradient id="linear-gradient-5" x1="110.92" y1="363.21" x2="481.76" y2="363.21" xlink:href="#linear-gradient"/>
    <linearGradient id="linear-gradient-6" x1="213.24" y1="290.12" x2="329.53" y2="290.12" xlink:href="#linear-gradient"/>
    <linearGradient id="linear-gradient-7" x1="395.05" y1="663.65" x2="581.67" y2="609.61" xlink:href="#linear-gradient"/>
  </defs>
  <title>NinjaVisLogo</title>
  <g id="Logo">
    <g>
      <path class="cls-1" d="M45.09,305.56C64.34,330.36,138.72,421,200.23,425.9a3.1,3.1,0,0,0,2.2-.69C218.64,412.08,435,234.37,532,23.6a3.11,3.11,0,0,1,5.92,1c3.83,41.28,9.73,188.08-81.41,314.36C355.61,478.73,270.74,552.21,261,560.46a3.06,3.06,0,0,1-2.18.73c-12.92-.77-123.86-11.52-201.65-153.73C37,370.09,38.07,325.1,39.52,307.22A3.11,3.11,0,0,1,45.09,305.56Z"/>
      <path class="cls-2" d="M179.07,550.61v18.87a3.12,3.12,0,0,0,1.95,2.89l90.25,36.43a3.09,3.09,0,0,0,3.13-.47c23.1-18.89,321.82-262.6,389.38-287.34a3.1,3.1,0,0,0,1.82-4L656,291a3.11,3.11,0,0,0-4.68-1.5C615.06,314.27,290.69,535.7,257.82,565.28A3.12,3.12,0,0,1,255,566l-72-18.4A3.12,3.12,0,0,0,179.07,550.61Z"/>
      <path class="cls-3" d="M543.76,167c16.3,10.24,76.66,51,95.46,104.22a3.11,3.11,0,0,1-1.21,3.6c-18.65,12.62-163.92,111-214.73,147a3.11,3.11,0,0,1-4.32-4.37C449.57,375.48,525.17,264,539,169.23A3.11,3.11,0,0,1,543.76,167Z"/>
      <path class="cls-4" d="M292.92,609.49a3.16,3.16,0,0,1,1.25.26c4.5,1.91,29,6.14,52-3.71,24.12-10.34,96.49-96.49,105.11-112,3.81-6.86,6.61-12,8.55-15.67a3.11,3.11,0,0,1,5.74.6c8,27.81,33.15,128-2.22,184.79-35.58,57.08-76.91,102-87.75,113.48a3.11,3.11,0,0,1-4.86-.44l-81-123.46a3.12,3.12,0,0,1-.51-1.71v-39a3.12,3.12,0,0,1,3.12-3.12Z"/>
      <path class="cls-5" d="M278.7,625.8c-.24,8.72.18,29.5.29,34.35a3.07,3.07,0,0,0,.65,1.83c5,6.42,38.27,49.22,39.86,55.19s-58.51-37.8-70-46.21a3.11,3.11,0,0,1-1.08-3.59c2.91-7.89,12.67-34.48,13.4-38.5.58-3.22,8.31-5.24,13.22-6.21A3.11,3.11,0,0,1,278.7,625.8Z"/>
      <path class="cls-6" d="M177.8,411.11a3.11,3.11,0,0,1-2.27-3.36c1.21-10.46,4.53-48.43,5.37-48.43s36.4,18.19,47.47,23.86a3.1,3.1,0,0,1,1.07,4.63c-5.55,7.43-20.2,26.37-26.06,27.41C197.68,416.22,183.67,412.7,177.8,411.11Z"/>
      <path class="cls-3" d="M502,466.91a3.11,3.11,0,0,1,4.78-3c24,15.47,118.81,78.09,126.33,105.91a204,204,0,0,1,6.56,36.43,3.12,3.12,0,0,0,6,.87L715.5,424.91a3.12,3.12,0,0,0-.76-3.37l-52.68-50.29a3.12,3.12,0,0,1,.3-4.76l30.14-22.33a3.12,3.12,0,0,1,3.6-.07l33.56,22.78a3.12,3.12,0,0,0,1.75.54h7.78A22,22,0,0,1,761,392.07l-11.09,89.75a3.12,3.12,0,0,1-.36,1.12L642.24,677.37a3.12,3.12,0,0,1-5.16.45l-39.22-48.73a3.12,3.12,0,0,1-.65-1.44l-8.71-52.25a3.12,3.12,0,0,0-1.19-2l-79.37-60.47a3.12,3.12,0,0,1-1.21-2.14Z"/>
      <path class="cls-7" d="M539.86,462.15a3.16,3.16,0,0,1,.85-2.76c9.17-9.28,76.32-76.84,92-81.65,13.6-4.18,27.48,8.56,32.28,13.58a3.11,3.11,0,0,1,.25,4L589.71,498.15a3.11,3.11,0,0,1-3.66,1.05C576.91,495.56,542.91,480.8,539.86,462.15Z"/>
      <path class="cls-1" d="M673.74,405.42a3.13,3.13,0,0,0-2.88,1.23c-8.41,11.19-66.65,88.88-67.68,96.88-1.1,8.62,14.41,37.91,29.48,37s67.63-96.49,68.49-106C702,425.54,687.28,407,673.74,405.42Z"/>
      <path class="cls-1" d="M186.39,326c0,3.88-5.17-53,34.89-90.46s127.94-129.23,184.8-118.89,49.11,15.51,49.11,15.51S293.65,337.68,271.68,350.6c-19.33,11.37-70.87,2.73-83,.49A3.1,3.1,0,0,1,186.2,348Z"/>
      <path class="cls-8" d="M111.6,427.78a3.12,3.12,0,0,1,4.09-4.58c24.76,15.29,79.41,47.79,97.84,48.45,20,.72,72.77-65.13,90.06-87.45a3.11,3.11,0,0,1,5.57,1.91h0a3.11,3.11,0,0,0,5.23,2.29c21.38-19.87,101.09-94.83,103.32-109.74,1.73-11.53,3.46-1.08,4.41,7.1a3.11,3.11,0,0,0,5.53,1.59c13.56-17.11,51.51-66.45,54.1-86.23,0,0-61.46,136.12-126.07,210.22-57.92,66.42-106.15,105.83-115.52,113.29a3.09,3.09,0,0,1-3.47.26C223.77,517.51,145.6,471.81,111.6,427.78Z"/>
      <path class="cls-9" d="M556.68,246.89c-1.93.21,10.34-34.25,8.4-44.58-1.82-9.71,32.82,43.25,37.05,49.75a3.05,3.05,0,0,1,.49,1.42c.37,4.42,1.92,26.44-3.3,32.83C593.51,293.41,562.5,246.24,556.68,246.89Z"/>
      <path class="cls-10" d="M245.61,264.45a3.29,3.29,0,0,1,1-1.41c3.19-2.67,15.22-19,46.6-16,19.27,1.85,29.46,5.43,34.67,8.21a3.11,3.11,0,0,1-.51,5.68l-23.23,7.83a3.12,3.12,0,0,0,.77,6.06l10,.72a3.11,3.11,0,0,1,1.94,5.35c-14.59,14-57,53.46-70.86,52.69-13.22-.73-20.67-7.81-22.14-19.64a3.12,3.12,0,0,0-6-.77,18.74,18.74,0,0,0-1.85,8.25c.47,8-8.89-35.08,4.21-40.23,9.18-3.61,15.84-4.46,19-4.64a3.13,3.13,0,0,0,2.78-2.06Z"/>
      <path class="cls-11" d="M506.65,540.46C523,562.58,572,628,590.12,641.18a3.11,3.11,0,0,1-.06,5.11c-25.38,17.07-155.51,104.46-167.17,109.12-12.92,5.17,77.19-74.07,78.4-204.19.4-42.82-.67,5.26-.25-9A3.12,3.12,0,0,1,506.65,540.46Z"/>
    </g>
  </g>
</svg>
